<?xml version="1.0" encoding="UTF-8"?>
<svg width="32" height="32" version="1.1" viewBox="0 0 32 32" xmlns="http://www.w3.org/2000/svg">
 <defs>
  <linearGradient id="gradient" x1="0%" y1="0%" x2="100%" y2="100%">
   <stop offset="0%" style="stop-color:#0082c9;stop-opacity:1" />
   <stop offset="100%" style="stop-color:#00a0e3;stop-opacity:1" />
  </linearGradient>
 </defs>
 <g>
  <!-- Background circle -->
  <circle cx="16" cy="16" r="14" fill="url(#gradient)" />
  
  <!-- AI Brain icon -->
  <path d="M 16 6 C 12 6 9 9 9 13 C 9 15 10 16.5 11 17.5 C 10 18 9 19 9 20.5 C 9 22.5 10.5 24 12.5 24 L 19.5 24 C 21.5 24 23 22.5 23 20.5 C 23 19 22 18 21 17.5 C 22 16.5 23 15 23 13 C 23 9 20 6 16 6 Z" 
        fill="white" opacity="0.9"/>
  
  <!-- Neural network nodes -->
  <circle cx="13" cy="12" r="1.5" fill="white"/>
  <circle cx="19" cy="12" r="1.5" fill="white"/>
  <circle cx="16" cy="15" r="1.5" fill="white"/>
  <circle cx="13" cy="18" r="1.5" fill="white"/>
  <circle cx="19" cy="18" r="1.5" fill="white"/>
  
  <!-- Neural network connections -->
  <line x1="13" y1="12" x2="16" y2="15" stroke="white" stroke-width="0.5" opacity="0.6"/>
  <line x1="19" y1="12" x2="16" y2="15" stroke="white" stroke-width="0.5" opacity="0.6"/>
  <line x1="16" y1="15" x2="13" y2="18" stroke="white" stroke-width="0.5" opacity="0.6"/>
  <line x1="16" y1="15" x2="19" y2="18" stroke="white" stroke-width="0.5" opacity="0.6"/>
 </g>
</svg>

